<svg width="33" height="40" viewBox="0 0 33 40" fill="none" xmlns="http://www.w3.org/2000/svg">
<path d="M23.5813 0.492188H16.4932V8.64696H23.5813V0.492188Z" fill="white"/>
<path d="M16.4935 15.2793H23.5816V26.7803C23.614 29.5478 22.8264 32.2624 21.3189 34.5791C19.8304 36.83 16.957 39.5081 11.6409 39.5081C5.85043 39.5081 2.4754 36.7698 0.654297 35.2692L5.12526 29.7542C6.90274 31.2055 8.61479 32.3994 11.6681 32.3994C13.9799 32.3994 14.9014 31.4574 15.4412 30.6359C16.175 29.4949 16.5546 28.1604 16.5317 26.8022L16.4935 15.2793Z" fill="white"/>
<path d="M12.8781 10.1311H5.79004V17.2508H12.8781V10.1311Z" fill="white"/>
<path d="M27.2952 36.167C27.2952 37.684 26.5264 38.5001 25.4523 38.5001C24.3782 38.5001 23.6748 37.5307 23.6748 36.2437C23.6748 34.9567 24.4 33.938 25.5123 33.938C26.6245 33.938 27.2952 34.9402 27.2952 36.167ZM24.4981 36.2272C24.4981 37.1418 24.8634 37.8155 25.4905 37.8155C26.1175 37.8155 26.4719 37.1035 26.4719 36.1725C26.4719 35.3564 26.1447 34.5897 25.4905 34.5897C24.8362 34.5897 24.4981 35.3291 24.4981 36.2272Z" fill="white"/>
<path d="M28.7021 34.0042V38.4293H27.917V34.0042H28.7021Z" fill="white"/>
<path d="M29.5518 38.4293V34.0042H30.4241L31.362 35.8279C31.6034 36.3048 31.8182 36.7948 32.0053 37.2956C31.9563 36.748 31.9345 36.1181 31.9345 35.4171V34.0042H32.6542V38.4293H31.8418L30.893 36.5672C30.6419 36.0781 30.418 35.5753 30.2224 35.0611C30.2224 35.6088 30.2606 36.2277 30.2606 36.9889V38.4238L29.5518 38.4293Z" fill="white"/>
</svg>
