<svg width="41" height="40" viewBox="0 0 41 40" fill="none" xmlns="http://www.w3.org/2000/svg">
<circle cx="20.6543" cy="20" r="16" fill="white"/>
<circle cx="20.6543" cy="20" r="19" stroke="white" stroke-width="2"/>
<path d="M16.2058 17.8203C16.1658 17.4165 15.9939 17.1028 15.6903 16.8793C15.3866 16.6557 14.9745 16.5439 14.4539 16.5439C14.1002 16.5439 13.8016 16.5939 13.558 16.6941C13.3144 16.7908 13.1275 16.926 12.9974 17.0995C12.8705 17.273 12.8071 17.4699 12.8071 17.6901C12.8005 17.8737 12.8388 18.0338 12.9223 18.1707C13.009 18.3075 13.1275 18.4259 13.2777 18.526C13.4278 18.6228 13.6013 18.7079 13.7982 18.7813C13.9951 18.8514 14.2053 18.9115 14.4289 18.9615L15.3499 19.1817C15.797 19.2819 16.2075 19.4153 16.5812 19.5822C16.955 19.749 17.2786 19.9542 17.5523 20.1978C17.8259 20.4414 18.0378 20.7284 18.188 21.0588C18.3415 21.3891 18.4199 21.7679 18.4232 22.195C18.4199 22.8223 18.2597 23.3663 17.9427 23.8268C17.629 24.2839 17.1752 24.6393 16.5812 24.8929C15.9906 25.1432 15.2782 25.2683 14.4439 25.2683C13.6164 25.2683 12.8956 25.1415 12.2816 24.8879C11.6709 24.6343 11.1937 24.2589 10.85 23.7617C10.5097 23.2612 10.3311 22.6422 10.3145 21.9047H12.4117C12.4351 22.2484 12.5335 22.5354 12.707 22.7656C12.8839 22.9925 13.1192 23.1644 13.4128 23.2812C13.7098 23.3946 14.0452 23.4514 14.4189 23.4514C14.786 23.4514 15.1046 23.398 15.3749 23.2912C15.6486 23.1844 15.8604 23.0359 16.0106 22.8457C16.1608 22.6555 16.2359 22.4369 16.2359 22.19C16.2359 21.9597 16.1674 21.7662 16.0306 21.6094C15.8972 21.4525 15.7003 21.3191 15.44 21.2089C15.1831 21.0988 14.8677 20.9987 14.494 20.9086L13.3778 20.6283C12.5135 20.4181 11.8311 20.0894 11.3306 19.6422C10.83 19.1951 10.5814 18.5928 10.5847 17.8353C10.5814 17.2146 10.7466 16.6724 11.0803 16.2085C11.4173 15.7447 11.8795 15.3826 12.4668 15.1224C13.0541 14.8621 13.7215 14.7319 14.4689 14.7319C15.2298 14.7319 15.8938 14.8621 16.4611 15.1224C17.0317 15.3826 17.4755 15.7447 17.7925 16.2085C18.1095 16.6724 18.2731 17.2096 18.2831 17.8203H16.2058Z" fill="#005DFF"/>
<path d="M19.881 14.8721H22.5539L25.377 21.7595H25.4971L28.3202 14.8721H30.9931V25.1232H28.8908V18.451H28.8057L26.1528 25.0731H24.7213L22.0684 18.4259H21.9833V25.1232H19.881V14.8721Z" fill="#005DFF"/>
</svg>
