<svg width="25" height="24" viewBox="0 0 25 24" fill="none" xmlns="http://www.w3.org/2000/svg">
<path d="M18.6158 3.69232L18.6158 20.3077C18.6153 20.7972 18.4207 21.2665 18.0746 21.6126C17.7285 21.9587 17.2592 22.1534 16.7697 22.1539L13.0774 22.1539C12.5879 22.1534 12.1186 21.9587 11.7725 21.6126C11.4264 21.2665 11.2317 20.7972 11.2312 20.3077L11.2312 3.69232C11.2317 3.20284 11.4264 2.73354 11.7725 2.38743C12.1186 2.04131 12.5879 1.84665 13.0774 1.84616L16.7697 1.84616C17.2592 1.84665 17.7285 2.04131 18.0746 2.38743C18.4207 2.73354 18.6153 3.20284 18.6158 3.69232ZM13.0774 20.3077L16.7697 20.3077L16.7697 3.69232L13.0774 3.69232L13.0774 20.3077ZM13.0774 3.69232L13.0774 20.3077C13.0769 20.7972 12.8822 21.2665 12.5361 21.6126C12.19 21.9587 11.7207 22.1533 11.2312 22.1538L7.53891 22.1538C7.04943 22.1533 6.58014 21.9587 6.23402 21.6126C5.88791 21.2665 5.69325 20.7972 5.69276 20.3077L5.69276 3.6923C5.69325 3.20282 5.88791 2.73353 6.23402 2.38741C6.58014 2.0413 7.04943 1.84663 7.53891 1.84615L11.2312 1.84615C11.7207 1.84663 12.19 2.0413 12.5361 2.38741C12.8822 2.73353 13.0769 3.20284 13.0774 3.69232ZM7.53891 20.3077L11.2312 20.3077L11.2312 3.69232L7.53891 3.6923L7.53891 20.3077ZM7.53891 3.6923L7.53891 20.3077C7.53842 20.7972 7.34376 21.2665 6.99765 21.6126C6.65153 21.9587 6.18224 22.1533 5.69276 22.1538L2.00045 22.1538C1.51097 22.1533 1.04168 21.9587 0.695563 21.6126C0.349447 21.2665 0.154786 20.7972 0.154297 20.3077L0.154296 3.6923C0.154785 3.20282 0.349447 2.73353 0.695562 2.38741C1.04168 2.0413 1.51097 1.84663 2.00045 1.84615L5.69276 1.84615C6.18224 1.84663 6.65153 2.0413 6.99765 2.38741C7.34376 2.73353 7.53842 3.20282 7.53891 3.6923ZM2.00045 20.3077L5.69276 20.3077L5.69276 3.6923L2.00045 3.6923L2.00045 20.3077Z" fill="#42526E"/>
<path d="M24.1543 3.69252L24.1543 20.3079C24.1538 20.7974 23.9591 21.2667 23.613 21.6128C23.2669 21.9589 22.7976 22.1536 22.3081 22.1541L18.6158 22.1541C18.1264 22.1536 17.6571 21.9589 17.3109 21.6128C16.9648 21.2667 16.7702 20.7972 16.7697 20.3077L16.7697 3.69232C16.7702 3.20284 16.9648 2.73375 17.3109 2.38763C17.6571 2.04152 18.1264 1.84686 18.6158 1.84637L22.3081 1.84637C22.7976 1.84686 23.2669 2.04152 23.613 2.38763C23.9591 2.73375 24.1538 3.20304 24.1543 3.69252ZM18.6158 20.3077L22.3081 20.3079L22.3081 3.69252L18.6158 3.69232L18.6158 20.3077Z" fill="#42526E"/>
</svg>
