<svg width="25" height="24" viewBox="0 0 25 24" fill="none" xmlns="http://www.w3.org/2000/svg">
<mask id="mask0_42001_1618" style="mask-type:alpha" maskUnits="userSpaceOnUse" x="0" y="0" width="25" height="24">
<rect x="0.154297" width="24" height="24" fill="#D9D9D9"/>
</mask>
<g mask="url(#mask0_42001_1618)">
<path d="M2.49583 24.0151C1.85191 24.0151 1.30067 23.7858 0.842123 23.3273C0.383572 22.8687 0.154297 22.3175 0.154297 21.6736V5.28283C0.154297 4.63891 0.383572 4.08767 0.842123 3.62912C1.30067 3.17057 1.85191 2.9413 2.49583 2.9413H12.9449L10.6034 5.28283H2.49583V21.6736H18.8866V13.5367L21.2281 11.1952V21.6736C21.2281 22.3175 20.9988 22.8687 20.5403 23.3273C20.0817 23.7858 19.5305 24.0151 18.8866 24.0151H2.49583ZM15.5792 3.61449L17.2475 5.25356L9.52044 12.9806V14.649H11.1595L18.9158 6.89264L20.5842 8.53171L12.8279 16.288C12.6132 16.5027 12.3644 16.6734 12.0815 16.8003C11.7986 16.9271 11.501 16.9905 11.1888 16.9905H8.34967C8.01795 16.9905 7.73989 16.8783 7.5155 16.6539C7.2911 16.4295 7.1789 16.1515 7.1789 15.8197V12.9806C7.1789 12.6684 7.23744 12.3709 7.35452 12.0879C7.47159 11.805 7.63745 11.5562 7.85209 11.3416L15.5792 3.61449ZM20.5842 8.53171L15.5792 3.61449L18.5061 0.687568C18.9744 0.219261 19.5354 -0.0148926 20.1891 -0.0148926C20.8427 -0.0148926 21.394 0.219261 21.8428 0.687568L23.4818 2.35591C23.9306 2.80471 24.155 3.35106 24.155 3.99499C24.155 4.63891 23.9306 5.18527 23.4818 5.63406L20.5842 8.53171Z" fill="#42526E"/>
</g>
</svg>
