<svg width="25" height="24" viewBox="0 0 25 24" fill="none" xmlns="http://www.w3.org/2000/svg">
<mask id="mask0_42001_1623" style="mask-type:alpha" maskUnits="userSpaceOnUse" x="0" y="0" width="25" height="24">
<rect x="0.154297" width="24" height="24" fill="#D9D9D9"/>
</mask>
<g mask="url(#mask0_42001_1623)">
<path d="M12.1545 19.2C11.0345 19.2 9.96449 19.375 8.94449 19.725C7.92449 20.075 6.99449 20.6 6.15449 21.3V21.6H18.1545V21.3C17.3145 20.6 16.3845 20.075 15.3645 19.725C14.3445 19.375 13.2745 19.2 12.1545 19.2ZM3.75449 20.22C4.83449 19.16 6.08949 18.325 7.51949 17.715C8.94949 17.105 10.4945 16.8 12.1545 16.8C13.8145 16.8 15.3595 17.105 16.7895 17.715C18.2195 18.325 19.4745 19.16 20.5545 20.22V4.8H3.75449V20.22ZM12.1545 14.4C10.9945 14.4 10.0045 13.99 9.18449 13.17C8.36449 12.35 7.95449 11.36 7.95449 10.2C7.95449 9.04 8.36449 8.05 9.18449 7.23C10.0045 6.41 10.9945 6 12.1545 6C13.3145 6 14.3045 6.41 15.1245 7.23C15.9445 8.05 16.3545 9.04 16.3545 10.2C16.3545 11.36 15.9445 12.35 15.1245 13.17C14.3045 13.99 13.3145 14.4 12.1545 14.4ZM12.1545 12C12.6545 12 13.0795 11.825 13.4295 11.475C13.7795 11.125 13.9545 10.7 13.9545 10.2C13.9545 9.7 13.7795 9.275 13.4295 8.925C13.0795 8.575 12.6545 8.4 12.1545 8.4C11.6545 8.4 11.2295 8.575 10.8795 8.925C10.5295 9.275 10.3545 9.7 10.3545 10.2C10.3545 10.7 10.5295 11.125 10.8795 11.475C11.2295 11.825 11.6545 12 12.1545 12ZM3.75449 24C3.09449 24 2.52949 23.765 2.05949 23.295C1.58949 22.825 1.35449 22.26 1.35449 21.6V4.8C1.35449 4.14 1.58949 3.575 2.05949 3.105C2.52949 2.635 3.09449 2.4 3.75449 2.4H4.95449V1.2C4.95449 0.537258 5.49175 0 6.15449 0C6.81723 0 7.35449 0.537258 7.35449 1.2V2.4H16.9545V1.2C16.9545 0.537258 17.4918 0 18.1545 0C18.8172 0 19.3545 0.537259 19.3545 1.2V2.4H20.5545C21.2145 2.4 21.7795 2.635 22.2495 3.105C22.7195 3.575 22.9545 4.14 22.9545 4.8V21.6C22.9545 22.26 22.7195 22.825 22.2495 23.295C21.7795 23.765 21.2145 24 20.5545 24H3.75449Z" fill="#4589FF"/>
</g>
</svg>
