<svg width="25" height="24" viewBox="0 0 25 24" fill="none" xmlns="http://www.w3.org/2000/svg">
<path d="M21.1543 1H3.1543C2.04973 1 1.1543 1.89648 1.1543 3.00105C1.1543 3.02939 1.1543 3.04928 1.1543 3.05917V21.0592C1.1543 22.1311 2.02427 23 3.09616 23C3.12439 23 3.14428 23 3.15429 23H21.1543C21.1643 23 21.1842 23 21.2124 23C22.2843 23 23.1543 22.1311 23.1543 21.0592V3.05915C23.1543 3.04925 23.1543 3.02937 23.1543 3.00104C23.1543 1.89648 22.2589 1 21.1543 1ZM14.1543 21.0592H3.1543V13.0591H14.1543V21.0592ZM14.1543 11.0591H3.1543V3.05917L14.1543 3.05915V11.0591ZM21.1543 21.0592H16.1543V3.05917H21.1543V21.0592Z" fill="#42526E"/>
</svg>
