<svg width="33" height="32" viewBox="0 0 33 32" fill="none" xmlns="http://www.w3.org/2000/svg">
<mask id="mask0_42001_1653" style="mask-type:alpha" maskUnits="userSpaceOnUse" x="0" y="0" width="33" height="32">
<rect x="0.21875" width="32" height="32" fill="#D9D9D9"/>
</mask>
<g mask="url(#mask0_42001_1653)">
<path d="M25.5479 18.6667C25.2319 18.6667 24.9684 18.5602 24.7573 18.3473C24.5462 18.1343 24.4407 17.8704 24.4407 17.5556V14.4445H21.3295C21.0147 14.4445 20.7508 14.3376 20.5379 14.1239C20.3249 13.9102 20.2184 13.6454 20.2184 13.3295C20.2184 13.0136 20.3249 12.7501 20.5379 12.5389C20.7508 12.3278 21.0147 12.2223 21.3295 12.2223H24.4407V9.11115C24.4407 8.79635 24.5475 8.53246 24.7612 8.31948C24.9749 8.10653 25.2397 8.00005 25.5557 8.00005C25.8716 8.00005 26.1351 8.10653 26.3462 8.31948C26.5573 8.53246 26.6629 8.79635 26.6629 9.11115V12.2223H29.774C30.0888 12.2223 30.3527 12.3291 30.5657 12.5428C30.7786 12.7566 30.8851 13.0214 30.8851 13.3373C30.8851 13.6532 30.7786 13.9167 30.5657 14.1278C30.3527 14.3389 30.0888 14.4445 29.774 14.4445H26.6629V17.5556C26.6629 17.8704 26.556 18.1343 26.3423 18.3473C26.1286 18.5602 25.8638 18.6667 25.5479 18.6667ZM12.2184 15.9778C10.7518 15.9778 9.53324 15.4926 8.56286 14.5223C7.5925 13.5519 7.10733 12.3334 7.10733 10.8667C7.10733 9.40005 7.5925 8.18154 8.56286 7.21118C9.53324 6.2408 10.7518 5.75562 12.2184 5.75562C13.6851 5.75562 14.9036 6.2408 15.874 7.21118C16.8443 8.18154 17.3295 9.40005 17.3295 10.8667C17.3295 12.3334 16.8443 13.5519 15.874 14.5223C14.9036 15.4926 13.6851 15.9778 12.2184 15.9778ZM2.66286 26.6667C2.34806 26.6667 2.08417 26.5602 1.87119 26.3473C1.65824 26.1343 1.55176 25.8704 1.55176 25.5556V23.3334C1.55176 22.563 1.7499 21.8612 2.14619 21.2279C2.5425 20.5945 3.0851 20.1186 3.77399 19.8C5.34437 19.0815 6.79873 18.5649 8.13706 18.25C9.47541 17.9352 10.8347 17.7779 12.2148 17.7779C13.595 17.7779 14.9555 17.9352 16.2962 18.25C17.6369 18.5649 19.0851 19.0815 20.6407 19.8C21.3295 20.1334 21.8758 20.613 22.2795 21.2389C22.6832 21.8649 22.8851 22.563 22.8851 23.3334V25.5556C22.8851 25.8704 22.7786 26.1343 22.5657 26.3473C22.3527 26.5602 22.0888 26.6667 21.774 26.6667H2.66286ZM3.77396 24.4445H20.6629V23.3334C20.6629 23.0149 20.5833 22.7149 20.424 22.4334C20.2647 22.1519 20.0258 21.9408 19.7073 21.8C18.2703 21.0963 16.9814 20.6204 15.8407 20.3723C14.6999 20.1241 13.4925 20 12.2184 20C10.9444 20 9.73695 20.1278 8.59619 20.3834C7.45546 20.6389 6.15917 21.1112 4.70732 21.8C4.41841 21.9408 4.19062 22.1519 4.02396 22.4334C3.85729 22.7149 3.77396 23.0149 3.77396 23.3334V24.4445ZM12.2184 13.7556C13.0406 13.7556 13.7277 13.4797 14.2795 12.9278C14.8314 12.376 15.1073 11.6889 15.1073 10.8667C15.1073 10.0445 14.8314 9.35746 14.2795 8.80562C13.7277 8.25375 13.0406 7.97782 12.2184 7.97782C11.3962 7.97782 10.7092 8.25375 10.1573 8.80562C9.60546 9.35746 9.32952 10.0445 9.32952 10.8667C9.32952 11.6889 9.60546 12.376 10.1573 12.9278C10.7092 13.4797 11.3962 13.7556 12.2184 13.7556Z" fill="white"/>
</g>
</svg>
